<svg width="16" height="21" viewBox="0 0 16 21" fill="none" xmlns="http://www.w3.org/2000/svg">
<path d="M14.8085 7.57788C14.8085 8.46363 14.3979 9.70233 13.7195 11.1156C13.0499 12.5107 12.1523 14.01 11.2476 15.395C10.3442 16.7782 9.43978 18.038 8.76079 18.9525C8.4663 19.3491 8.21453 19.6804 8.02405 19.9281C7.83356 19.6804 7.58179 19.3491 7.2873 18.9525C6.60832 18.038 5.70393 16.7782 4.80045 15.395C3.89583 14.01 2.99823 12.5107 2.32857 11.1156C1.65019 9.70233 1.23962 8.46363 1.23962 7.57788C1.23962 3.83095 4.27711 0.793457 8.02405 0.793457C11.771 0.793457 14.8085 3.83095 14.8085 7.57788Z" fill="#2A94D6" stroke="white"/>
</svg>
