<svg width="21" height="30" viewBox="0 0 21 30" fill="none" xmlns="http://www.w3.org/2000/svg">
<path d="M20.4166 10.8473C20.4166 12.1343 19.8244 13.9018 18.8736 15.8826C17.9315 17.8452 16.6707 19.9509 15.4028 21.8919C14.1361 23.8313 12.8685 25.597 11.9171 26.8784C11.4415 27.5189 11.0454 28.0378 10.7685 28.3963C10.7541 28.4149 10.74 28.4331 10.7263 28.4509C10.7125 28.4331 10.6985 28.4149 10.6841 28.3963C10.4071 28.0378 10.011 27.5189 9.53548 26.8784C8.58406 25.597 7.31643 23.8313 6.04971 21.8919C4.78185 19.9509 3.52101 17.8452 2.57892 15.8826C1.6281 13.9018 1.03592 12.1343 1.03592 10.8473C1.03592 5.4955 5.37444 1.15698 10.7263 1.15698C16.0781 1.15698 20.4166 5.4955 20.4166 10.8473Z" fill="#C9D8C7" stroke="#344A5F"/>
<path d="M18.5709 10.4565C18.5709 14.5935 15.0774 17.9802 10.7263 17.9802C6.37515 17.9802 2.88165 14.5935 2.88165 10.4565C2.88165 6.31963 6.37515 2.93286 10.7263 2.93286C15.0774 2.93286 18.5709 6.31963 18.5709 10.4565Z" fill="#FFFDFD" stroke="#344A5F"/>
<g clip-path="url(#clip0_814:83)">
<path d="M14.5963 9.24992C14.4309 9.24992 14.27 9.27157 14.1158 9.31217L13.3013 7.17945L14.0079 6.9225C14.1767 6.8611 14.268 6.66199 14.2117 6.4778C14.1554 6.29363 13.973 6.19399 13.8041 6.25547L12.7465 6.64104C12.5822 6.71574 12.5045 6.92154 12.573 7.10077L12.7754 7.6309L9.95083 8.43204L9.6607 7.69367H10.109C10.2869 7.69367 10.4312 7.53626 10.4312 7.3421C10.4312 7.14795 10.2869 6.99054 10.109 6.99054H8.72822C8.55024 6.99054 8.40595 7.14795 8.40595 7.3421C8.40595 7.53626 8.55024 7.69367 8.72822 7.69367H8.95945L9.38854 8.78571L8.76395 9.58067C8.45208 9.37104 8.08513 9.24992 7.69269 9.24992C6.56332 9.24992 5.6445 10.2522 5.6445 11.4843C5.6445 12.7163 6.56332 13.7186 7.69267 13.7186C8.71241 13.7186 9.56037 12.9014 9.7154 11.8358H10.7993C10.9022 11.8358 10.999 11.7822 11.0597 11.6914L13.1384 8.58136L13.5211 9.58331C12.9376 9.97749 12.5481 10.6821 12.5481 11.4843C12.5481 12.7163 13.4669 13.7186 14.5963 13.7186C15.7256 13.7186 16.6445 12.7163 16.6445 11.4843C16.6445 10.2522 15.7257 9.24992 14.5963 9.24992V9.24992ZM7.69267 13.0155C6.91872 13.0155 6.28903 12.3286 6.28903 11.4843C6.28903 10.6399 6.91872 9.95304 7.69267 9.95304C7.92474 9.95304 8.14365 10.0152 8.33669 10.1244L7.44799 11.2555C7.36607 11.3598 7.34729 11.5065 7.39988 11.6312C7.45248 11.7559 7.56682 11.8359 7.69267 11.8359H9.05854C8.91249 12.5112 8.35574 13.0155 7.69267 13.0155V13.0155ZM8.39336 11.1327L9.67151 9.50597L10.3106 11.1327H8.39336ZM10.8725 10.7781L10.2076 9.08569L12.4239 8.45707L10.8725 10.7781ZM14.5963 13.0155C13.8224 13.0155 13.1927 12.3286 13.1927 11.4843C13.1927 10.975 13.422 10.5232 13.7737 10.2447L14.2988 11.6195C14.3673 11.7987 14.556 11.8835 14.7203 11.8088C14.8845 11.7341 14.9622 11.5283 14.8938 11.3491L14.3684 9.97355C14.4426 9.96026 14.5187 9.95304 14.5963 9.95304C15.3703 9.95304 15.9999 10.64 15.9999 11.4843C15.9999 12.3286 15.3703 13.0155 14.5963 13.0155V13.0155Z" fill="black"/>
</g>
<defs>
<clipPath id="clip0_814:83">
<rect width="11" height="12" fill="white" transform="translate(5.6445 3.97803)"/>
</clipPath>
</defs>
</svg>
