<svg width="15" height="21" viewBox="0 0 15 21" fill="none" xmlns="http://www.w3.org/2000/svg">
<path d="M14.2144 7.64648C14.2144 8.53223 13.8038 9.77094 13.1254 11.1842C12.4557 12.5793 11.5582 14.0786 10.6535 15.4636C9.75005 16.8468 8.84566 18.1066 8.16667 19.0211C7.87218 19.4177 7.62042 19.749 7.42993 19.9967C7.23945 19.749 6.98768 19.4177 6.69319 19.0211C6.0142 18.1066 5.10981 16.8468 4.20633 15.4636C3.30171 14.0786 2.40412 12.5793 1.73446 11.1842C1.05607 9.77094 0.645508 8.53223 0.645508 7.64648C0.645508 3.89955 3.683 0.862061 7.42993 0.862061C11.1769 0.862061 14.2144 3.89955 14.2144 7.64648Z" fill="#C9D8C7" stroke="#344A5F"/>
</svg>
