<svg width="1024" height="768" viewBox="0 0 1024 768" fill="none" xmlns="http://www.w3.org/2000/svg">
<mask id="mask0_740_8552" style="mask-type:alpha" maskUnits="userSpaceOnUse" x="0" y="0" width="1024" height="768">
<rect width="1024" height="768" fill="#D9D9D9"/>
</mask>
<g mask="url(#mask0_740_8552)">
<path d="M-25.5 -58.5C-22.5 95.6667 -16 407 -14 419L1252.5 505.5L1266 -31.5L-25.5 -58.5Z" fill="#96847C"/>
<path d="M609.663 183.5C609.163 219.167 608.463 291.5 609.663 295.5H697.663L700.163 182L609.663 183.5Z" fill="#7A939E"/>
<path d="M686.163 191.5L684.663 282L656.663 282.622L658.163 191.5H686.163Z" fill="#263739"/>
<path d="M617.163 283.5V191.5H649.163L646.663 282.844L617.163 283.5Z" fill="#263739"/>
<path d="M866.705 173.596C866.173 211.547 865.428 288.512 866.705 292.768H960.34L963 172L866.705 173.596Z" fill="#7A939E"/>
<path d="M948.104 182.108L946.508 278.403L916.715 279.065L918.311 182.108H948.104Z" fill="#263739"/>
<path d="M874.686 279.999V182.108H908.735L906.075 279.302L874.686 279.999Z" fill="#263739"/>
<path d="M871.705 -43.404C871.173 -5.45344 870.428 71.5116 871.705 75.7677H965.34L968 -45L871.705 -43.404Z" fill="#7A939E"/>
<path d="M953.104 -34.8917L951.508 61.4032L921.715 62.0653L923.311 -34.8917H953.104Z" fill="#263739"/>
<path d="M879.686 62.9993V-34.8917H913.735L911.075 62.3018L879.686 62.9993Z" fill="#263739"/>
<path d="M430.589 190.333C430.144 222.023 429.522 286.293 430.589 289.847H508.779L511 189L430.589 190.333Z" fill="#7A939E"/>
<path d="M498.561 197.441L497.228 277.852L472.35 278.405L473.682 197.441H498.561Z" fill="#263739"/>
<path d="M437.253 279.185V197.441H465.686L463.464 278.602L437.253 279.185Z" fill="#263739"/>
<path d="M433.589 -20.6672C433.144 11.0234 432.522 75.2932 433.589 78.8473H511.779L514 -22L433.589 -20.6672Z" fill="#7A939E"/>
<path d="M501.561 -13.5591L500.228 66.8522L475.35 67.405L476.682 -13.5591H501.561Z" fill="#263739"/>
<path d="M440.253 68.185V-13.5591H468.686L466.464 67.6025L440.253 68.185Z" fill="#263739"/>
<path d="M207.536 200.372C207.132 229.233 206.565 287.763 207.536 291H278.744L280.767 199.158L207.536 200.372Z" fill="#7A939E"/>
<path d="M269.438 206.845L268.225 280.076L245.568 280.58L246.781 206.845H269.438Z" fill="#263739"/>
<path d="M213.605 281.29V206.845H239.499L237.476 280.759L213.605 281.29Z" fill="#263739"/>
<path d="M9.46516 203.053C9.11414 228.093 8.62271 278.874 9.46516 281.682H71.2449L73 202L9.46516 203.053Z" fill="#7A939E"/>
<path d="M63.1714 208.669L62.1183 272.204L42.4612 272.641L43.5142 208.669H63.1714Z" fill="#263739"/>
<path d="M14.7305 273.257V208.669H37.1958L35.4407 272.797L14.7305 273.257Z" fill="#263739"/>
<path d="M1063 791L-34 653V791H1063Z" fill="#655A5A"/>
<path d="M-40.5 661.5L-29 594.5L1233 717.5L1153 807.5L-40.5 661.5Z" fill="#BBAEA4"/>
<path d="M482 580.5C387.667 592.833 199 618.2 199 621L726.5 681L985 638.5L482 580.5Z" fill="#BBAEA4"/>
<path d="M1185 794L-56.5 649L-69 677.5L788 780.5L1185 794Z" fill="#504C4D"/>
<path d="M925 640L1198.5 665.5L1221 717.5L616 657L925 640Z" fill="#6E742C"/>
<path d="M404 607C333.6 607 243.667 615.667 207.5 620L-8.5 597.5L-26.5 563.5C13 558 102 547.6 142 550C192 553 351 575.5 404 576.5C446.4 577.3 490.333 597.167 507 607H404Z" fill="#6E742C"/>
<path d="M132.5 550L1195.5 675.5L1221 630.5L-1.5 503.5L-22.5 523.5V563.5L132.5 550Z" fill="#BBAEA4"/>
<path d="M-18.5 503.5L1218 632.5V582L267 503.5L-7.5 469.5L-18.5 503.5Z" fill="#023B07"/>
<path d="M1176.5 301.5C1186.9 301.5 1191.83 307.5 1193 310.5L1220 583.5L-12.5 480.5L-7 334.5C-5.66667 333.5 -2 331.5 2 331.5C6 331.5 8 336.833 8.5 339.5C9.16667 338.833 11.5 336.9 15.5 334.5C19.5 332.1 25.1667 332.833 27.5 333.5C28.1667 332.5 30.1 330.5 32.5 330.5C34.9 330.5 36.1667 332.5 36.5 333.5C36.6667 332.5 37.8 330.2 41 329C44.2 327.8 48.6667 328.5 50.5 329C51.3333 328.167 53.7 326.5 56.5 326.5C59.3 326.5 61 327.833 61.5 328.5C61.6667 327.667 62.8 325.7 66 324.5C69.2 323.3 72 324 73 324.5C74.1667 323.833 77 322.5 79 322.5C81 322.5 86.1667 323.833 88.5 324.5C89.3333 323.333 91.4 321 93 321C94.6 321 96.6667 323.667 97.5 325C97.8333 324.5 99.3 323.3 102.5 322.5C105.7 321.7 109.833 323.5 111.5 324.5C111.833 323.667 113 321.8 115 321C117 320.2 119.833 322.333 121 323.5C121.5 322.333 123 319.9 125 319.5C127 319.1 131.833 322 134 323.5C134.5 322.5 136 320.6 138 321C140 321.4 142.167 324.833 143 326.5C143.333 325.5 144.6 323.3 147 322.5C149.4 321.7 155.333 323.833 158 325C158.333 323.667 161.2 321 170 321C178.8 321 188.667 326 192.5 328.5C192.5 327.5 193.2 324.9 196 322.5C198.8 320.1 202.833 320.5 204.5 321C204.667 320.5 206.1 318.8 210.5 316C214.9 313.2 219.667 317.167 221.5 319.5C222.5 317.833 226 314.8 232 316C238 317.2 241.5 324.833 242.5 328.5C243.667 327.167 247.8 325 255 327C262.2 329 268.333 336.5 270.5 340C272.833 338.167 278.7 333.8 283.5 331C288.3 328.2 297.167 329.833 301 331C302.5 328.667 307.2 324.1 314 324.5C320.8 324.9 323.167 327.333 323.5 328.5C324.167 327 327 323.4 333 321C340.5 318 389.5 319.5 397 321C403 322.2 406.833 326.5 408 328.5C408.333 324.333 411.2 316.7 420 319.5C428.8 322.3 430 328.333 429.5 331C431.333 330.333 436.4 328.9 442 328.5C447.6 328.1 455.333 330 458.5 331C460.833 328.667 467.7 324.3 476.5 325.5C485.3 326.7 494.833 332 498.5 334.5C506.5 331.5 523.7 327.3 528.5 334.5C533.3 341.7 566.833 337.5 583 334.5C587.833 331.5 600.3 324.6 611.5 321C622.7 317.4 638.833 322.5 645.5 325.5C648.167 322.333 655.7 316 664.5 316C673.3 316 681.167 322.333 684 325.5C756.167 320.5 902.9 310.5 912.5 310.5C922.1 310.5 933.5 314.167 938 316C939.5 314.167 944.4 310.5 952 310.5C959.6 310.5 968.5 314.167 972 316C974.167 314.167 980.5 310.5 988.5 310.5C996.5 310.5 1008.5 314.167 1013.5 316C1018 311.167 1029 301.5 1037 301.5C1045 301.5 1055.67 311.167 1060 316C1064.83 314.167 1076.6 310.5 1085 310.5C1093.4 310.5 1098.17 320.5 1099.5 325.5C1099.17 323 1099.8 316.5 1105 310.5C1110.2 304.5 1117.5 308 1120.5 310.5C1123.83 307.5 1131.8 301.5 1137 301.5C1142.2 301.5 1155.17 307.5 1161 310.5C1161.83 307.5 1166.1 301.5 1176.5 301.5Z" fill="url(#paint0_linear_740_8552)"/>
<g style="mix-blend-mode:multiply">
<path d="M593.433 649.609C605.433 649.209 796.1 644.109 889.933 641.609C807.433 637.275 629.933 627.209 579.933 621.609C517.433 614.609 391.433 585.609 375.933 584.109C360.433 582.609 284.933 564.609 270.433 563.109C255.933 561.609 139.433 576.109 110.933 577.609C88.133 578.809 2.09965 575.109 -38.067 573.109C-40.067 589.442 -40.167 623.409 -24.567 628.609C-5.06702 635.109 440.5 628.5 372 648C283.672 673.144 372 732.5 492.5 680C534.5 658.5 587.945 649.792 593.433 649.609Z" fill="#A5A5A5"/>
</g>
<path d="M329.5 509C328.7 543 312.833 565.167 305 572C309 580 370.667 583.333 401 584C398.667 564.5 393.8 523.7 393 516.5C392 507.5 394 406 401 384C408 362 409.5 268.5 409.5 255.5V138C409.5 114 454.5 68.5 473 57.5C491.5 46.5 510.5 33.5 537 23.5C558.2 15.5 595.5 -31.1667 611.5 -53.5H599.5C594.5 -48.6667 581.4 -36.2 569 -25C556.6 -13.8 524.833 2.33333 510.5 9L537 -44.5L522.5 -53.5C517.5 -45.3333 506.6 -24.6 503 -7C498.5 15 466.5 32.5 454.5 44.5C442.5 56.5 418.5 75 409.5 76.5C404 56 407.5 23.5 409.5 2.5C411.1 -14.3 425.5 -35.8333 432.5 -44.5H370V9C370 45 361 68.5 355.5 97C351 79.5 246 14.5 248 23.5C250 32.5 310.5 68.5 329.5 109C348.5 149.5 339 199 344.5 211.5C350 224 348 255.5 339 277.5C330 299.5 339 302.5 339 333.5C339 364.5 330.5 466.5 329.5 509Z" fill="#9F4F36"/>
<path d="M473 57.5C491.5 46.5 510.5 33.5 537 23.5C544.7 20.5944 554.523 12.5884 564.679 2.5C539.119 13.5 485 37.3 473 44.5C458 53.5 401 97 393 145.5C385 194 393 247 384 391C376.8 506.2 381 567.3 384 583.451C390.245 583.711 396.041 583.891 401 584C398.667 564.5 393.8 523.7 393 516.5C392 507.5 394 406 401 384C408 362 409.5 268.5 409.5 255.5V138C409.5 114 454.5 68.5 473 57.5Z" fill="#633122"/>
<path d="M442.5 24.5C427.3 15.7 414.167 -2.5 409.5 -10.5C399.251 -24.5 416.896 -74.3333 427 -97.5L709.5 -116C802.833 -108 989.8 -80.6 991 -35C992.2 10.6 963.5 18 949 16C952.667 24.3333 955.4 45 937 61C918.6 77 891 61.6667 879.5 52C879.167 57.8333 875.4 72.6 863 85C850.6 97.4 823.5 102.833 811.5 104C808.667 113.333 797.1 132.7 773.5 135.5C749.9 138.3 739.333 103 737 85C734.5 91.6667 723.5 106.3 699.5 111.5C675.5 116.7 661.167 96 657 85C654 88.3333 642.3 94.5 619.5 92.5C596.7 90.5 586.667 70.6667 584.5 61C579.667 62 564.9 63.4 544.5 61C524.1 58.6 501.667 30 493 16C482.5 22.5 457.7 33.3 442.5 24.5Z" fill="#4E552D"/>
<path d="M418.5 -9.5C403.3 -18.3 390.167 -36.5 385.5 -44.5C375.251 -58.5 416.896 -144.333 427 -167.5L709.5 -186C802.833 -178 989.8 -150.6 991 -105C992.2 -59.4 990 -42.5 975.5 -44.5C979.167 -36.1667 981.9 -15.5 963.5 0.5C945.1 16.5 911 11.6667 899.5 2C899.167 7.83333 883.381 23.7798 862.5 29C842.5 34 823.5 32.8333 811.5 34C808.667 43.3333 797.1 62.7 773.5 65.5C749.9 68.3 739.333 33 737 15C734.5 21.6667 723.5 36.3 699.5 41.5C675.5 46.7 661.167 26 657 15C654 18.3333 640.256 34.1587 618 39.5C593 45.5 562.667 36.6667 560.5 27C555.667 28 540.9 29.4 520.5 27C500.1 24.6 477.667 -4 469 -18C458.5 -11.5 433.7 -0.699997 418.5 -9.5Z" fill="#797E36"/>
<path d="M427 51C440.2 35 425.167 13 416 4C438.8 -28.4 420.5 -49.1667 408.5 -55.5H-19V115.5C-15 127.667 -2.1 155.5 17.5 169.5C37.1 183.5 64.3333 169 75.5 160C79.5 170.5 92.4 194.1 112 204.5C131.6 214.9 158.833 185.5 170 169.5C171.833 176.833 181.2 194.1 204 204.5C226.8 214.9 253.833 200.167 264.5 191.5C270 196.333 286.5 203.1 308.5 191.5C330.5 179.9 323.333 140.667 317 122.5C322.667 126.5 337.7 132.1 352.5 122.5C367.3 112.9 375.667 77.5 378 61C388.833 64.3333 413.8 67 427 51Z" fill="#4E552D"/>
<path d="M483 -45.5C496.2 -61.5 425.167 -106 416 -115C438.8 -147.4 420.5 -168.167 408.5 -174.5H-19L-55.5 18.5C-51.5 30.6667 -38.6 58.5 -19 72.5C0.599998 86.5 64.3333 50 75.5 41C79.5 51.5 92.4 75.1 112 85.5C131.6 95.9 158.833 66.5 170 50.5C171.833 57.8333 181.2 75.1 204 85.5C226.8 95.9 253.833 81.1667 264.5 72.5C270 77.3333 286.5 84.1 308.5 72.5C330.5 60.9 379.333 44.1667 373 26C378.667 30 393.7 35.6 408.5 26C423.3 16.4 431.667 -19 434 -35.5C444.833 -32.1667 469.8 -29.5 483 -45.5Z" fill="#797E36"/>
<path d="M1029.5 -45V670.5C1011.5 680.9 991 674.833 983 670.5L992.5 -45H1029.5Z" fill="#94908E"/>
<path d="M287 236L282.5 613H275.5L280 236H287Z" fill="#5E636F"/>
<path d="M295.5 613H282.5L287 235.5H298.5L295.5 613Z" fill="#444952"/>
<path d="M499.5 244.5L929.5 230L922.5 216L897.5 192.5L837 164L738 171.5L277.5 236L499.5 244.5Z" fill="#292116"/>
<path d="M329 191C298.6 200.2 269.333 217.833 258.5 225.5L698 209.5L727.5 194.5L822 159C683.167 167.333 403.8 183.9 397 183.5C388.5 183 367 179.5 329 191Z" fill="#9CA9B0"/>
<path d="M813 159.5C747.8 157.9 705.5 191.333 687.5 208.5L714 209.5C731.667 198 768.1 174.6 814.5 175C860.9 175.4 892.833 202.5 909 216.5H929.5C914.333 197.833 878.2 161.1 813 159.5Z" fill="#FEFAF7"/>
<path d="M494.5 609L499.5 243H491.5L487.5 609H494.5Z" fill="#444044"/>
<path d="M510.5 242.5H499L495 608.5H506.5L510.5 242.5Z" fill="#F9F6F1"/>
<g filter="url(#filter0_b_740_8552)">
<path d="M908 238.5L505 249.5L502 589L904.5 621.5L908 238.5Z" fill="#4BD3BB" fill-opacity="0.3"/>
</g>
<path d="M682 652L687.5 221.5H699.5L695.5 652H682Z" fill="#FEFAF7"/>
<g filter="url(#filter1_b_740_8552)">
<path d="M490 250.5L300 245.5L297 592L486 586.5L490 250.5Z" fill="#4BD3BB" fill-opacity="0.3"/>
</g>
<path d="M513 534.5H460L678.5 555.5L682 544.5L513 534.5Z" fill="#6A5346"/>
<path d="M460 541.5V534.5L677.5 549L680.5 557.5L460 541.5Z" fill="#3B0F05"/>
<path d="M473 546.5L467 540.5L678 556V563L473 546.5Z" fill="#040204"/>
<path d="M673.5 652L676.5 221.5H687.5L682 652H673.5Z" fill="#757782"/>
<path d="M258 238.5L689.5 224V208.733L258 224V238.5Z" fill="#6C7989"/>
<path d="M901 647L905.5 228.5H913.5L910.5 647H901Z" fill="#504A51"/>
<path d="M929.5 229H913.5L910.5 647H923L929.5 229Z" fill="#FEFAF7"/>
<path d="M930 216.5L687.5 208.5V224L930 231V216.5Z" fill="#FEFAF7"/>
<path d="M607.5 292.5H602.5V410H607.5V292.5Z" fill="#E4E5E1"/>
<path d="M515.5 549V614.5H521.5V549H515.5Z" fill="#383841"/>
<path d="M527.5 549H521.5V615H527.5V549Z" fill="#A6A4A4"/>
<path d="M644.5 627L645.5 557H649V627H644.5Z" fill="#383841"/>
<path d="M656.5 557.5H649.5V627H656.5V557.5Z" fill="#A6A4A4"/>
<path d="M328.5 250V237.5H339V250H328.5Z" fill="#251C1B"/>
<path d="M455 253V241.5H464.5V253H455Z" fill="#251C1B"/>
<path d="M522 253V241.5H531V250L529 253H522Z" fill="#251C1B"/>
<path d="M603.5 251.5V240H612.5V248L610.5 251.5H603.5Z" fill="#251C1B"/>
<path d="M647 250V238.5H655.5V248L653.5 250H647Z" fill="#251C1B"/>
<path d="M782 245.5V234H790.5V242.5L789 245.5H782Z" fill="#251C1B"/>
<path d="M878.5 243L877.5 231H887.5V239L886.5 243H878.5Z" fill="#251C1B"/>
<path d="M304 412.5L297 412V423.5L304 422.5V412.5Z" fill="#5B676B"/>
<path d="M485.5 413H493.5V424H485.5V413Z" fill="#FBF7EA"/>
<path d="M507 412.5H500V423.5H507V412.5Z" fill="#4E5353"/>
<path d="M328.5 596.5C328.333 600.833 328.1 610.1 328.5 612.5H332.5V596.5H335.5V585.5H325.5V596.5H328.5Z" fill="#C1BCB8"/>
<path d="M457.5 593V609.5H454.5V593H451V583.5H460.5V593H457.5Z" fill="#C1BCB8"/>
<path d="M600 602.5V592H610V602.5H607V619H603V602.5H600Z" fill="#514B4D"/>
<path d="M777.5 619V608.5H787.5V619H784.5V635.5H780.5V619H777.5Z" fill="#514B4D"/>
<path d="M873.5 626V615.5H883.5V626H880.5V642.5H876.5V626H873.5Z" fill="#514B4D"/>
<path d="M914.5 249H698L695 615L911 610L914.5 249Z" fill="#FEFAF7"/>
<path d="M602.5 292.5L518.5 294V407L602.5 410V292.5Z" fill="#3B3B3A"/>
<path d="M599.5 298.5L522.5 299.5V401.5L599.5 403V298.5Z" fill="#616875"/>
<path d="M210 734L-24 680.5L-300.5 616.5L-416.5 680.5C-340.667 704.667 -186.5 753.7 -176.5 756.5C-166.5 759.3 85.3333 742.667 210 734Z" fill="url(#paint1_linear_740_8552)"/>
<path d="M-10.4999 693C6.30006 690.2 12.1667 681.833 13.0001 678C-15.9999 673.833 -73.4999 668 -71.4999 678C-68.9999 690.5 -31.4999 696.5 -10.4999 693Z" fill="black"/>
<path d="M-205.5 372.5C-207.5 428.5 -209.333 607.5 -210 690C-200 698 228.5 679.5 236.5 677C244.5 674.5 235.5 606.5 236.5 577C237.5 547.5 232.5 227 228.5 220.5C224.5 214 183.5 212 155.5 210.5C127.5 209 -171.5 195 -190 197.5C-208.5 200 -203 302.5 -205.5 372.5Z" fill="#1E7CB0"/>
<path d="M212 634.5C212 629.5 210 625 206 625C201 625 198.5 630.5 198.5 634.5C198.5 638.5 201 644 204 644C209.5 644 212 639.525 212 634.5Z" fill="#DEDEDE"/>
<path d="M-207.5 515C-207.5 523.653 91.5 517 236.5 515C235.333 421.667 232.4 234.8 230 234C227 233 -178.5 213.5 -192.5 217C-206.5 220.5 -207.5 483 -207.5 515Z" fill="#0D0D0D"/>
<path d="M-181 501H236.5L233 304C101.5 298.833 -164.8 288.5 -178 288.5C-191.2 288.5 -192.493 296 -193 304C-196 351.333 -202.2 451.8 -203 475C-203.8 498.2 -193 501 -181 501Z" fill="#BADEE9"/>
<path d="M-128.5 544.5C-130.9 542.5 -127.5 536.667 -125.5 534C-124 536.5 -125.5 535.5 -118.5 535C-112.9 534.6 -53.8331 500.5 -24.9998 483.5L-95.4998 482.5V480.5L92.5002 479V481C57.5002 481.833 -13.3998 483.5 -16.9998 483.5C-21.4998 483.5 -50.9998 505 -62.9998 512C-74.9998 519 -105.5 538.5 -114.5 542C-123.5 545.5 -125.5 547 -128.5 544.5Z" fill="#100B0A"/>
<path d="M203.5 540C203.9 543.2 198 544 195 544C188.5 544 189.5 540 189 537.5C188.5 535 174 529 166 523C158 517 127.5 501 126 499.5C124.8 498.3 40.1667 498.333 -2 498.5V496.5L172.5 495.5V497.5L132 498.5L182.5 526C189.333 529.333 203.1 536.8 203.5 540Z" fill="#100B0A"/>
<g style="mix-blend-mode:lighten">
<path d="M53 297C-29.3333 362.333 -194.1 494 -194.5 498C-192.1 500.4 -182.167 501 -177.5 501L151 302L53 297Z" fill="white" fill-opacity="0.58"/>
<path d="M208.5 303.5C87.1667 369.333 -156 501 -158 501H-143L229.5 304.5L208.5 303.5Z" fill="white" fill-opacity="0.58"/>
</g>
<path d="M-153.5 544C-157.5 541.2 -187.833 531 -204.5 525V578C-200.5 582 -201.8 581.1 -197 583.5C-191 586.5 -120.5 612 -114 616.5C-108.231 620.494 -96.1623 654.416 -90.0241 662C-89.2457 662.962 -105.563 691 -105 691C-104.593 691 -86.9123 663.507 -86 663.518C-75.6947 663.649 -35.8901 664.419 -29 663.5C-21.5 662.5 -24.5 656 -14 651.5C-3.5 647 114 649 119.5 648.5C125 648 131.5 656 134 659.5C136.346 662.785 166.884 659.903 176 656.643C176.596 656.43 189.601 679.715 190 679.5C190.542 679.208 178.626 655.197 179.244 654.5C186.033 646.842 196.917 616.749 201.5 608.5C206.5 599.5 236.5 588.5 236.5 583.5V529C234.333 532.833 229.2 541.2 226 544C222 547.5 201 551.5 196.5 555C192 558.5 169.5 628.5 167 636.5C164.5 644.5 -61 642 -71.5 640.5C-82 639 -105.5 551.5 -111 548.5C-116.5 545.5 -148.5 547.5 -153.5 544Z" fill="#135579"/>
<path d="M224 557C221.5 557 217.5 564 217.5 569.5C217.5 573.5 221 575.5 223 575.5C225 575.5 228 570.5 228 565.5C228 560.5 226.5 557 224 557Z" fill="#DEDEDE"/>
<path d="M212 573C212 569 210 563.5 206 563.5C202 563.5 200 568.5 200 573.5C200 578.5 203 582 206 582C209 582 212 577 212 573Z" fill="#DEDEDE"/>
<path d="M226 620C226 617 223 611 219 611C215 611 213 616.5 213 620C213 623.5 215 628.5 219 629C223 629.5 226 623 226 620Z" fill="#DEDEDE"/>
<path d="M99 655.532V673.063C99 674.143 98.143 675.027 97.0638 675.062L28.5 677.25L7.0638 677.934C5.9348 677.97 5 677.065 5 675.935V656.968C5 655.876 5.8761 654.986 6.96809 654.969L28.5 654.625L96.9681 653.532C98.085 653.515 99 654.415 99 655.532Z" fill="#8C4C04"/>
<path d="M435.734 667.183C443.073 667.89 448.041 657.013 448.32 648.74L431.974 642.207L424.785 650.708C425.988 655.964 429.863 666.617 435.734 667.183Z" fill="#7D7D7D"/>
<path d="M476.123 533.712C490.758 536.414 502.281 540.422 506.213 542.088L475.38 555.775C469.53 547.295 461.489 531.01 476.123 533.712Z" fill="#A09066" stroke="#A09066" stroke-width="0.919827"/>
<path d="M477.636 502.471C483.454 515.552 479.059 537.646 476.134 547.057C479.429 544.868 506.259 540.709 506.213 542.088C506.167 543.467 506.471 548.079 505.872 552.201C505.273 556.322 498.018 580.467 496.133 581.784C494.248 583.101 489.129 584.769 474.772 587.507C460.414 590.245 442.364 593.318 436.864 592.673C431.363 592.027 397.917 587.679 392.494 584.736C387.071 581.792 383.419 553.598 382.747 546.213C382.076 538.827 386.491 530.693 389.404 526.189C392.317 521.686 398.483 502.566 400.936 498.047C403.389 493.528 409.855 492.825 413.119 491.555C416.383 490.284 422.545 484.97 430.529 480.177C438.513 475.384 437.61 474.893 452.716 477.242C467.823 479.592 470.364 486.12 477.636 502.471Z" fill="#E8D5A5"/>
<g style="mix-blend-mode:multiply">
<path d="M431.5 486C437.1 480.4 452.5 479.333 459.5 479.5L462 480C449 475 441.5 475.5 437.5 476.5C433.5 477.5 418.5 488 415 490.5C411.5 493 412.5 492 408 493C403.5 494 401 497.5 400.5 498.5C400 499.5 393 518.5 390.5 524C388 529.5 383.565 534.5 383 541C382 552.5 386 568 386.5 570.5C387 573 389.5 582.5 392 584.5C394 586.1 403.5 587.833 408 588.5L407.5 587.5L395 550C394.333 546.833 394 536.5 398 520.5C402 504.5 422 499.5 431.5 499C429.167 497 425.9 491.6 431.5 486Z" fill="#CFCFCF"/>
</g>
<path d="M434.518 553.019C441.412 553.251 474.74 547.471 476.134 547.058C473.325 548.497 466.409 551.608 461.224 552.538C454.742 553.7 442.239 556.04 431.192 556.128C422.354 556.198 395.525 551.953 383.156 550.309L383.218 548.47C398.049 549.89 429.002 552.833 434.518 553.019Z" fill="#A09066"/>
<path d="M466.879 548.587C462.231 536.312 450.679 510.399 441.659 504.941C430.385 498.119 424.058 494.684 415.769 494.865C409.137 495.01 402.79 497.649 400.445 498.951" stroke="#A09066" stroke-width="0.919827"/>
<path d="M418.365 650.032C418.196 644.136 420.381 640.282 421.495 639.093C426.119 647.532 435.45 664.688 435.781 665.804C436.194 667.198 427.889 667.839 424.29 665.417C420.69 662.995 418.577 657.401 418.365 650.032Z" fill="#575757"/>
<path d="M418.462 592.513C414.025 593.1 400.755 608.176 394.674 615.641C400.753 626.43 424.909 647.031 426.272 647.537C427.636 648.043 471.592 654.585 473.018 653.253C474.443 651.92 471.074 601.648 469.298 599.747C467.521 597.847 424.009 591.779 418.462 592.513Z" fill="#E8D5A5"/>
<g style="mix-blend-mode:multiply">
<path d="M426 646.5C426 646.5 420.5 643 416.5 639.5C415.253 638.409 413.227 636.442 411 634.222L437 638.5L444.363 628.5C450.097 634.824 464.848 646.719 473 653C472 654 459 652.5 455.5 652C452 651.5 426 646.5 426 646.5Z" fill="#C1C1C1"/>
</g>
<path d="M537.218 427.629L531.31 411.784L520.614 415.105L516.121 425.538L512.697 445.21L522.133 451.97L538.82 448.391L546.303 431.156L537.218 427.629Z" fill="#FFDAAE"/>
<path d="M547.749 634.142C548.902 632.708 548.436 627.416 548.059 624.949L547.263 621.241L559.721 620.28C559.684 621.352 559.777 624.055 560.439 626.286C561.1 628.517 562.47 629.729 563.073 630.056L550.719 641.605L541.893 644.069C541.77 643.144 541.624 641.114 542.017 640.391C542.507 639.487 546.308 635.934 547.749 634.142Z" fill="#FFDAAE"/>
<path d="M514.959 637.639C516.174 634.367 516.684 627.42 516.787 624.356L527.757 626.566C526.872 630.064 525.087 637.52 525.025 639.359C524.963 641.197 525.826 642.914 526.265 643.542L519.933 653.913L503.122 658.229L503.595 654.442C506.002 651.301 513.745 640.912 514.959 637.639Z" fill="#FFDAAE"/>
<path d="M518.205 513.962C517.754 505.479 518.199 486.811 518.478 478.537L532.835 475.8L548.408 546.271C549.83 554.142 553.009 570.907 554.343 575.001C556.011 580.12 561.575 619.882 561.544 620.801C561.513 621.721 554.985 624.262 552.671 624.644C550.82 624.95 537.477 624.899 531.036 624.836L522.601 561.047C521.323 548.886 518.655 522.444 518.205 513.962Z" fill="#5C7EA2"/>
<path d="M562.398 499.804C561.654 489.103 555.904 478.571 553.122 474.642L540.773 472.385C535.982 473.451 526.378 476.226 526.292 478.8C526.183 482.018 526.483 500.435 527.248 505.062C527.859 508.764 533.067 514.462 535.594 516.848L529.872 536.443L519.962 571.082L502.523 624.335C505.291 624.122 511.465 623.9 514.014 624.722C517.2 625.75 529.869 632.159 529.916 630.78C529.953 629.677 535.801 610.884 538.721 601.625L552.267 554.684C554.553 546.017 559.33 528.047 560.152 525.498C561.18 522.312 563.328 513.18 562.398 499.804Z" fill="#769AC6"/>
<path d="M518.678 431.606C519.475 429.792 522.739 429.442 524.271 429.494L522.969 427.149L512.335 428.632L512.956 451.201C514.347 459.991 517.304 477.854 518.002 478.981C518.875 480.391 520.27 479.978 521.649 480.025C523.028 480.071 525.832 478.785 528.161 477.943C530.49 477.101 530.428 478.94 533.186 479.033C535.944 479.126 539.255 476.476 542.947 476.14C546.64 475.804 556.691 477.984 556.83 473.847C556.941 470.537 562.602 457.322 565.418 451.127L564.504 437.291L559.359 426.074L550.244 423.466C548.466 426.167 544.624 431.836 543.484 432.902C542.058 434.234 540.493 439.704 539.481 442.431C538.469 445.158 534.193 449.155 529.565 449.92C524.938 450.684 520.894 447.787 519.53 447.281C518.167 446.775 517.681 433.874 518.678 431.606Z" fill="#F3B259"/>
<path d="M519.996 474.447C521.223 470.807 520.796 464.35 520.429 461.577L511.36 457.59C509.275 460.28 504.916 465.84 504.156 466.55C503.205 467.439 505.824 471.669 504.858 473.017C503.892 474.365 501.517 476.585 501.47 477.964C501.424 479.343 500.443 481.151 499.017 482.483C497.592 483.816 497.592 483.816 497.483 487.034C497.375 490.251 500.975 492.673 501.388 494.068C501.801 495.462 504.941 497.869 507.684 498.421C510.426 498.974 516.634 492.28 517.156 490.457C517.677 488.634 518.462 478.997 519.996 474.447Z" fill="#CB954C"/>
<path d="M546.877 455.105C547.319 452.911 546.992 447.132 546.773 444.517L546.396 428.398L551.654 422.593L559.803 426.549L563.677 434.503L564.989 450.193C564.669 459.692 563.906 479.607 563.415 483.272C562.8 487.853 556.608 494.087 554.692 496.323C552.776 498.56 547.689 499.309 544.946 498.756C542.752 498.314 540.713 496.926 539.968 496.288C539.503 496.425 538.291 496.875 537.163 497.574C535.753 498.447 532.03 499.702 530.238 498.261C528.445 496.82 527.206 492.637 528.156 491.748C528.916 491.038 532.835 489.452 534.7 488.747L534.777 486.449C534.854 484.151 542.699 483.495 542.761 481.656C542.823 479.818 547.177 473.522 547.668 472.618C548.158 471.714 548.421 463.9 548.483 462.061C548.545 460.223 546.324 457.847 546.877 455.105Z" fill="#CB954C"/>
<path d="M569.203 448.034C569.142 449.872 566.286 452.691 564.865 453.87C564.626 451.868 564.169 447.22 564.256 444.646C564.364 441.428 561.885 433.062 561.027 431.192C560.17 429.322 557.965 426.487 554.778 425.459C551.591 424.432 549.737 424.829 548.71 428.016C547.682 431.203 551.726 434.1 552.124 435.954C552.521 437.808 548.323 439.507 548.705 441.821C549.087 444.135 552.227 446.542 552.656 447.476C553.085 448.411 550.724 450.172 550.218 451.536C549.813 452.627 550.58 454.462 551.014 455.244L548.318 453.312C546.97 452.347 548.457 449.176 548.044 447.781C547.631 446.387 544.015 444.424 543.143 443.014C542.27 441.604 544.186 439.368 544.248 437.529C544.31 435.691 540.281 432.334 539.408 430.924C538.535 429.514 538.091 429.039 537.218 427.629C536.52 426.501 532.988 416.596 531.31 411.784C528.29 414.904 522.248 421.235 522.236 421.602C522.223 421.97 523.608 426.404 524.302 428.574L519.245 428.404C519.194 429.936 518.986 433.365 518.569 434.824C518.047 436.647 518.642 446.331 518.611 447.25C518.58 448.169 517.521 452.275 518.332 455.524C519.143 458.772 521.364 461.148 520.383 462.956C519.401 464.763 514.836 463.689 512.982 464.087C511.128 464.485 511.494 467.258 508.721 467.625C505.948 467.991 504.6 467.026 504.63 466.106C504.661 465.187 506.087 463.855 506.593 462.491C507.099 461.128 504.847 459.671 503.99 457.802C503.132 455.932 506.81 456.056 507.347 453.773C507.884 451.49 505.172 450.019 504.33 447.689C503.489 445.36 507.197 444.565 507.29 441.807C507.383 439.049 505.668 435.31 505.73 433.471C505.792 431.632 508.167 429.412 507.754 428.017C507.341 426.623 506.36 428.43 504.95 429.303C503.54 430.176 503.969 431.111 503.86 434.328C502.972 433.378 501.686 430.574 501.273 429.179C500.859 427.785 503.297 423.725 503.328 422.806C503.359 421.887 501.107 420.43 501.138 419.511C501.169 418.592 504.51 415.023 504.557 413.644C504.603 412.265 501.004 409.843 501.065 408.004C501.127 406.166 503.947 404.42 504.928 402.612C505.91 400.805 504.118 399.364 504.257 395.227C504.396 391.09 508.641 388.012 511.492 385.347C514.343 382.682 518.098 380.507 521.331 380.156C523.917 379.875 525.738 381.378 526.325 382.165C526.795 381.874 528.642 381.691 532.27 383.286C536.804 385.279 537.507 391.745 537.935 392.68C538.364 393.615 541.107 394.167 542.439 395.593C543.772 397.018 543.173 401.139 543.601 402.074C544.03 403.009 547.661 404.512 548.534 405.922C549.406 407.332 547.888 411.422 548.776 412.372C549.665 413.323 553.817 413.002 555.165 413.968C556.513 414.934 554.948 420.403 555.821 421.813C556.694 423.223 560.309 425.186 561.213 425.676L561.213 425.676C562.117 426.167 562.437 430.319 562.851 431.714C563.264 433.108 566.022 433.201 566.895 434.611C567.767 436.021 565.805 439.636 565.743 441.475C565.681 443.313 569.281 445.735 569.203 448.034Z" fill="#3D301D"/>
<g style="mix-blend-mode:multiply">
<path d="M524.5 425C523.3 424.6 522.167 422.333 522 421.5C521.6 420.342 530 418.5 532.5 415C534.5 418.5 525.7 425.4 524.5 425Z" fill="#D9D9D9"/>
</g>
<path d="M508.911 407.348C507.601 402.518 508.685 395.836 509.391 393.099C513.114 391.844 519.059 392.964 522.705 394.007C525.622 394.842 529.22 400.976 530.654 403.939C531.129 403.495 532.355 402.616 533.458 402.653C534.837 402.699 534.713 406.376 534.192 408.2C533.774 409.658 532.138 409.971 531.372 409.945C531.489 411.023 531.327 413.993 529.745 417.253C527.767 421.328 517.593 422.826 516.229 422.32C514.866 421.814 510.548 413.385 508.911 407.348Z" fill="#FFDAAE"/>
<g style="mix-blend-mode:multiply">
<path d="M524 405.5C524 405.5 525 403.5 524 401.5C521 400.5 516.5 401.5 516.5 402C516.5 402.4 516.5 406 518.5 407L519.5 405.5L521 405L524 405.5Z" fill="#D9D9D9"/>
</g>
<g style="mix-blend-mode:multiply">
<path d="M513.5 403C513 401.5 510 402 508.5 402C508 406.5 509.334 408.667 510 411C511.5 415 514.512 421.008 516 422C517.5 423 521 422 521 421.5C521 421 514.5 424 515.5 417.5C513.5 417 516 414 515.5 413.5C515 413 513 413 514 410.5C514.766 408.586 514 404.5 513.5 403Z" fill="#D0D0D0"/>
</g>
<path d="M564.803 633.336C565.22 631.877 562.649 628.968 561.311 627.696C561.301 628.003 560.992 628.974 559.84 630.408C558.399 632.2 553.632 637.101 551.747 638.418C549.862 639.735 545.188 641.879 543.809 641.832C542.706 641.795 542.481 640.254 542.507 639.488C540.617 640.958 536.732 644.263 536.315 645.721C535.793 647.545 536.222 648.479 538.505 649.016C540.788 649.553 550.043 648.024 551.437 647.611C552.553 647.281 554.477 643.879 555.3 642.219C555.427 642.991 555.59 644.53 555.223 644.518C554.855 644.505 556.887 645.187 557.95 645.53L563.037 644.781L563.284 637.426C563.346 635.588 564.281 635.159 564.803 633.336Z" fill="#FF8E8E"/>
<path d="M521.498 648.443C523.018 647.022 524.727 643.644 525.392 642.132C525.825 642.914 526.687 644.661 526.662 645.396C526.631 646.315 525.221 647.188 524.731 648.092C524.338 648.815 524.085 653.593 524.008 655.891L521.111 656.335C520.457 657.54 517.598 658.832 516.85 659.175C516.102 659.518 510.696 663.436 503.122 662.489C502.576 660.477 504.244 652.116 504.542 653.968C505.489 659.842 519.597 650.22 521.498 648.443Z" fill="#FF8E8E"/>
<path d="M533.544 509.416L438.487 640.125C434.319 640.905 416.96 637.099 408.733 635.442C400.506 633.784 383.163 629.518 379.517 628.475C375.87 627.432 375.473 625.578 376.01 623.295C376.439 621.469 393.868 598.587 402.529 587.374L406.635 588.433C397.658 599.942 379.693 623.235 379.656 624.338C379.61 625.717 401.058 631.042 406.084 632.131C410.104 633.003 424.847 635.217 431.716 636.216C433.084 636.569 436.202 636.919 437.722 635.498C439.623 633.721 530.404 507.01 531.845 505.217C533.285 503.425 531.953 502 530.589 501.494C529.226 500.988 498.047 497.637 495.749 497.559C493.45 497.482 483.798 497.157 481.944 497.554C480.46 497.872 478.179 500.035 477.223 501.077C476.943 500.3 476.296 498.561 475.953 497.813C476.903 496.924 481.164 493.386 485.301 493.526C489.437 493.665 520.694 494.718 530.729 497.357C538.757 499.468 535.95 506.276 533.544 509.416Z" fill="#6C4E4F"/>
<path d="M502.018 489.027C501.332 487.531 499.005 487.392 497.928 487.509C496.187 487.45 494.204 488.764 491.875 489.606C489.545 490.448 487.707 490.386 486.788 490.355L486.788 490.355C485.868 490.324 485.238 495.364 485.652 496.759C486.065 498.153 489.189 501.02 489.634 501.495C490.078 501.97 490.124 500.591 491.044 500.622C491.963 500.653 492.469 499.289 492.913 499.765C493.357 500.24 496.053 502.171 496.973 502.202C497.892 502.233 494.752 499.826 494.323 498.892C493.894 497.957 494.907 495.23 494.953 493.851C495 492.472 496.854 492.074 497.282 493.009C497.711 493.944 496.317 494.357 496.27 495.736C496.224 497.115 499.503 495.385 499.994 494.481C500.484 493.577 502.876 490.897 502.018 489.027Z" fill="#FFDAAE"/>
<path d="M519.408 491.914C519.883 491.47 532.247 493.267 532.707 493.282C534.514 494.263 534.85 497.956 533.456 498.369C532.061 498.782 529.794 497.786 529.334 497.77C528.875 497.755 526.53 499.056 525.104 500.389C523.679 501.721 522.713 503.069 520.859 503.467C519.005 503.865 517.688 501.98 516.356 500.554C515.023 499.129 515.498 498.685 515.039 498.669C514.579 498.654 514.641 496.815 515.147 495.452C515.653 494.088 516.113 494.104 517.507 493.69C518.902 493.277 518.933 492.358 519.408 491.914Z" fill="#FFDAAE"/>
<g style="mix-blend-mode:multiply">
<path fill-rule="evenodd" clip-rule="evenodd" d="M569.203 448.034C569.141 449.872 566.285 452.69 564.865 453.87L564.862 453.846C564.862 453.855 564.861 453.863 564.861 453.872L497.489 486.857C497.551 485.032 497.585 484.293 497.905 483.711C498.118 483.324 498.457 483.006 499.017 482.483C500.442 481.151 501.423 479.343 501.47 477.964C501.503 476.987 502.706 475.587 503.747 474.374C504.175 473.876 504.576 473.409 504.858 473.016C505.355 472.322 504.901 470.863 504.474 469.489C504.073 468.197 503.694 466.981 504.155 466.55C504.256 466.456 504.421 466.275 504.636 466.027C504.691 465.544 505.097 464.954 505.539 464.311C505.935 463.735 506.36 463.116 506.593 462.491C506.9 461.663 506.19 460.801 505.393 459.833C504.878 459.206 504.326 458.536 503.989 457.802C503.543 456.828 504.326 456.395 505.255 455.881C506.11 455.408 507.089 454.867 507.346 453.773C507.671 452.394 506.81 451.311 505.891 450.156C505.29 449.399 504.663 448.611 504.33 447.689C503.891 446.474 504.69 445.676 505.568 444.8C506.373 443.996 507.245 443.126 507.289 441.807C507.34 440.288 506.844 438.473 506.397 436.84C506.033 435.508 505.701 434.297 505.729 433.471C505.759 432.597 506.31 431.638 506.837 430.721C507.419 429.709 507.971 428.749 507.754 428.017C507.478 427.087 506.95 427.581 506.211 428.272C505.842 428.617 505.419 429.012 504.949 429.303C503.864 429.975 503.868 430.683 503.878 432.441C503.881 432.967 503.885 433.587 503.86 434.328C502.971 433.378 501.685 430.574 501.272 429.179C501.015 428.311 501.864 426.407 502.548 424.874C502.962 423.946 503.316 423.153 503.327 422.806C503.343 422.346 502.788 421.752 502.233 421.159C501.677 420.565 501.122 419.971 501.138 419.511C501.152 419.098 501.834 418.149 502.586 417.105L502.586 417.105C503.507 415.826 504.531 414.403 504.556 413.644C504.578 413.004 503.814 412.139 502.996 411.213C502.05 410.142 501.032 408.99 501.065 408.004C501.102 406.901 502.132 405.831 503.162 404.762C503.849 404.048 504.536 403.335 504.928 402.612C505.435 401.678 505.201 400.841 504.876 399.679C504.572 398.594 504.189 397.225 504.256 395.227C504.375 391.709 507.463 388.956 510.138 386.572L510.138 386.572C510.608 386.153 511.066 385.745 511.492 385.347C514.343 382.682 518.097 380.507 521.33 380.156C523.917 379.875 525.738 381.378 526.325 382.165C526.795 381.874 528.641 381.691 532.269 383.285C535.982 384.918 537.126 389.549 537.654 391.687C537.771 392.16 537.857 392.51 537.935 392.68C538.145 393.138 538.912 393.505 539.796 393.927C540.714 394.366 541.76 394.866 542.439 395.593C543.294 396.508 543.353 398.534 543.4 400.115C543.426 400.997 543.447 401.74 543.601 402.074C543.801 402.511 544.702 403.072 545.693 403.69C546.822 404.394 548.068 405.171 548.533 405.922C548.974 406.634 548.805 408.029 548.644 409.358C548.486 410.662 548.336 411.902 548.776 412.372C549.226 412.853 550.511 413.009 551.846 413.17C553.149 413.328 554.499 413.491 555.165 413.968C555.902 414.496 555.768 416.371 555.638 418.192L555.638 418.192C555.53 419.701 555.425 421.174 555.821 421.813C556.694 423.223 560.309 425.185 561.213 425.676C561.83 426.011 562.175 428.052 562.463 429.758C562.597 430.551 562.719 431.271 562.85 431.714C563.065 432.44 563.916 432.813 564.806 433.203C565.625 433.562 566.476 433.935 566.894 434.611C567.431 435.478 566.896 437.178 566.389 438.787L566.389 438.787C566.072 439.795 565.766 440.766 565.743 441.475C565.713 442.343 566.5 443.341 567.331 444.395C568.26 445.573 569.244 446.82 569.203 448.034ZM497.489 486.857L491.874 489.606C492.648 489.326 493.383 488.995 494.084 488.678L494.084 488.678C495.318 488.122 496.446 487.613 497.489 487.521C497.48 487.36 497.477 487.197 497.483 487.034C497.485 486.973 497.487 486.915 497.489 486.857ZM564.861 453.872L564.865 453.87L564.861 453.872C564.861 453.872 564.861 453.872 564.861 453.872ZM518.014 502.34C517.999 506.866 518.048 511.024 518.204 513.961C518.655 522.444 521.323 548.886 522.6 561.047L522.674 561.603L519.962 571.082L502.522 624.335C505.29 624.122 511.464 623.9 514.013 624.722C514.622 624.918 515.576 625.311 516.721 625.807C516.531 629.247 516.008 634.813 514.959 637.639C513.744 640.911 506.002 651.301 503.595 654.441L503.122 658.229L503.285 658.187C503.034 659.931 502.907 661.699 503.122 662.489C509.797 663.323 514.788 660.379 516.391 659.434L516.391 659.434L516.393 659.433C516.608 659.307 516.761 659.216 516.85 659.175L516.894 659.155C517.705 658.784 520.469 657.517 521.11 656.335L524.007 655.891C524.085 653.592 524.338 648.815 524.73 648.092C524.927 647.731 525.27 647.374 525.613 647.017C526.128 646.483 526.643 645.948 526.662 645.396C526.675 645.013 526.447 644.357 526.165 643.704L526.265 643.542C525.826 642.914 524.963 641.197 525.025 639.359C525.07 638.032 526.012 633.779 526.865 630.199C528.662 630.883 529.901 631.21 529.916 630.78C529.928 630.414 530.579 628.104 531.551 624.84C536.01 624.882 543.246 624.913 548.035 624.838L548.058 624.949C548.435 627.416 548.901 632.708 547.749 634.142C547.073 634.982 545.879 636.209 544.75 637.369L544.75 637.369L544.75 637.37C543.87 638.273 543.031 639.136 542.507 639.743C542.504 639.651 542.504 639.565 542.507 639.487C540.617 640.958 536.732 644.263 536.315 645.721C535.793 647.544 536.222 648.479 538.504 649.016C540.787 649.553 550.042 648.024 551.437 647.611C552.552 647.281 554.477 643.879 555.3 642.219C555.427 642.99 555.59 644.53 555.222 644.517C554.854 644.505 556.887 645.187 557.949 645.53L563.036 644.781L563.284 637.426C563.32 636.356 563.652 635.764 564.026 635.096C564.294 634.616 564.584 634.098 564.802 633.336C565.22 631.877 562.649 628.968 561.311 627.696C561.308 627.78 561.283 627.912 561.225 628.09C560.923 627.587 560.646 626.987 560.438 626.286C560.03 624.91 559.839 623.354 559.76 622.113C560.808 621.589 561.533 621.106 561.543 620.801C561.574 619.882 556.011 580.119 554.343 575.001C553.574 572.644 552.195 566.088 550.892 559.447L552.266 554.684C554.552 546.017 559.33 528.047 560.152 525.498C561.18 522.312 563.328 513.18 562.398 499.804C562.155 496.311 561.379 492.835 560.346 489.601C561.874 487.483 563.152 485.227 563.415 483.272C563.849 480.032 564.496 464.088 564.861 453.872L518.353 482.558C518.355 482.486 518.357 482.414 518.359 482.342C518.348 482.42 518.336 482.498 518.325 482.576L500.667 493.468L496.884 494.297C496.898 494.279 496.912 494.261 496.926 494.243C497.239 493.834 497.503 493.491 497.282 493.009C496.853 492.074 494.999 492.472 494.953 493.851C494.944 494.109 494.902 494.413 494.841 494.745L485.651 496.759C485.996 497.921 488.223 500.105 489.213 501.076C489.411 501.27 489.559 501.416 489.633 501.495C489.843 501.719 489.964 501.53 490.13 501.272C490.316 500.983 490.558 500.606 491.043 500.622C491.503 500.637 491.859 500.304 492.156 500.027C492.453 499.749 492.691 499.527 492.913 499.765C493.357 500.24 496.053 502.171 496.972 502.202C497.492 502.22 496.715 501.459 495.864 500.625C495.208 499.983 494.509 499.298 494.323 498.892C494.061 498.321 494.336 497.084 494.601 495.892C494.689 495.496 494.776 495.105 494.841 494.745L496.884 494.297C496.6 494.668 496.291 495.099 496.27 495.736C496.223 497.115 499.503 495.385 499.993 494.481C500.092 494.3 500.266 494.048 500.475 493.746L500.475 493.746L500.475 493.745C500.536 493.657 500.6 493.564 500.667 493.468C500.939 493.723 501.187 493.926 501.388 494.068C502 494.5 512 495 513.5 495C513.675 494.824 513.886 494.626 514.117 494.41L514.118 494.409L514.118 494.409C515.201 493.392 516.725 491.96 517.155 490.457C517.34 489.812 517.557 488.188 517.829 486.157L517.829 486.157L517.829 486.157C517.977 485.053 518.141 483.829 518.325 482.576L518.353 482.558C518.264 485.714 518.173 489.513 518.108 493.441C517.941 493.535 517.743 493.62 517.506 493.69C517.357 493.734 517.219 493.774 517.09 493.81C516.013 494.116 515.598 494.234 515.146 495.451C514.64 496.815 514.578 498.654 515.038 498.669C515.232 498.676 515.259 498.758 515.326 498.959C515.418 499.233 515.584 499.73 516.355 500.554C516.544 500.756 516.733 500.968 516.923 501.181C517.279 501.58 517.639 501.983 518.014 502.34Z" fill="#C5C5C5"/>
</g>
<path d="M428.033 649.897L487.034 660.628C487.801 660.654 489.247 660.518 488.904 659.77C488.561 659.023 461.967 635.241 448.712 623.443C441.098 621.806 424.594 618.121 419.496 616.477C414.397 614.833 397.904 610.841 390.294 609.051L388.869 610.383L394.674 615.641L395.64 614.293C395.507 613.675 395.337 612.35 395.717 611.995C396.192 611.55 445.004 624.239 447.271 625.236C449.538 626.232 480.754 655.815 479.819 656.243C479.072 656.586 446.271 650.358 429.965 647.201L428.033 649.897Z" fill="#6C4E4F"/>
<path d="M488.24 643.533C490.839 642.884 494.511 644.051 496.023 644.715L488.287 683.109C480.013 682.83 474.239 676.654 474.704 662.864C475.168 649.075 484.991 644.343 488.24 643.533Z" fill="#575757"/>
<path d="M364.519 663.864C367.359 647.853 376.123 647.228 384.397 647.507C385.189 660.418 385.119 686.186 378.5 685.963C370.226 685.684 361.679 679.874 364.519 663.864Z" fill="#575757"/>
<path d="M418.83 677.198C418.892 675.359 422.667 658.92 440.072 661.347C442.386 674.616 443.984 700.961 431.861 700.185C416.708 699.214 418.768 679.036 418.83 677.198Z" fill="#575757"/>
<path d="M504.932 667.103C505.578 661.603 505.676 645.04 495.104 644.684C488.209 644.452 479.656 652.447 479.331 662.1C478.929 674.051 484.15 682.97 490.126 683.171C497.48 683.419 504.072 674.437 504.932 667.103Z" fill="#7D7D7D"/>
<path d="M395.254 666.74C394.898 677.312 385.855 686.211 378.96 685.978C372.571 684.383 368.636 678.268 369.513 665.873C370.391 653.478 380.292 646.448 385.761 648.013C391.23 649.578 395.61 656.168 395.254 666.74Z" fill="#7D7D7D"/>
<path d="M423.778 680.585C424.579 670.488 432.289 660.164 440.992 661.378C448.346 661.625 450.624 675.968 449.473 682.831C448.321 689.695 442.434 700.541 433.7 700.247C424.967 699.953 422.978 690.682 423.778 680.585Z" fill="#7D7D7D"/>
<path d="M422.068 663.041C421.002 661.901 422.182 646.019 422.905 638.22L432.557 638.545L431.938 656.931C433.01 656.967 435.425 657.233 436.504 658.005C437.852 658.971 441.261 680.714 441.183 683.012C441.106 685.311 439.252 685.708 437.429 685.187C435.606 684.665 432.119 665.22 431.69 664.286C431.262 663.351 423.401 664.467 422.068 663.041Z" fill="#6C4E4F"/>
<path d="M369.611 649.31L370.416 625.408L379.149 625.702L378.577 642.709C379.501 642.587 381.525 642.624 382.223 643.752C383.096 645.162 388.328 667.427 388.282 668.806C388.235 670.185 386.35 671.502 385.002 670.536C383.654 669.57 378.251 652.362 377.379 650.952C376.68 649.824 371.909 649.387 369.611 649.31Z" fill="#6C4E4F"/>
<g style="mix-blend-mode:multiply">
<path d="M468.5 599.5C467.5 599.5 441.5 620.5 442 625L442.004 625.036C442.079 625.722 442.106 625.963 443.5 627.5C443.5 627.5 438.02 636.066 436.5 636.5C433 637.5 409.5 632.5 409.5 632.5C404.585 627.601 400.188 623.188 399.5 622.5C398.7 621.7 395.833 617.5 394.5 615.5L389.5 611C386.166 615.167 379.5 623.7 379.5 624.5C379.5 625.3 391.5 628.5 397.5 630L407.5 632.5C407.166 632.5 406.5 632.7 406.5 633.5C406.5 634.3 406.833 634.833 407 635C401.666 633.833 390.7 631.4 389.5 631C388.3 630.6 382 629.167 379 628.5L378.5 642.5C379.333 642.667 381.1 643 381.5 643C382 643 383.5 645.5 383.5 647.5C387.5 648.5 397 653 395 668C393 683 382.5 685.5 379.5 686C376.5 686.5 372.5 685.5 369 682.5C365.5 679.5 363.5 676.5 364.5 664.5C365.3 654.9 370.166 650.5 372.5 649.5L369.5 649L370.5 625.5H376C376 624.667 376.2 622.7 377 621.5C377.8 620.3 382.666 613.667 385 610.5L394 598.5L402.5 587.5L406.5 588.5C403.666 592.167 397.7 599.9 396.5 601.5C395.3 603.1 392 607.167 390.5 609L398.5 611C398.833 610.667 400.2 609.2 403 606C406.5 602 413 595.5 415.5 594C418 592.5 418 592.5 421 592.5C424 592.5 432 593.5 437 594C442 594.5 461 597.5 463 598C465 598.5 469.5 599.5 468.5 599.5Z" fill="#C1C1C1"/>
</g>
<path d="M516.5 402C517.167 401.667 518.9 401 520.5 401C522.1 401 523.5 401.333 524 401.5M512 402.5C511.167 402.167 509.2 401.7 508 402.5" stroke="#2F2516" stroke-width="0.6" stroke-linecap="round"/>
<g style="mix-blend-mode:multiply">
<path d="M518 411.5C516.8 411.9 514.5 411.667 513.5 411.5C513.5 412.5 515.5 413.5 516 413.5C516.5 413.5 519.5 411 518 411.5Z" fill="#CDCDCD"/>
</g>
<path d="M515.5 417.5C516.5 417.5 517.919 417.509 519.079 417.123C520.239 416.737 520.809 416.214 520.949 416" stroke="#2D2D2D" stroke-width="0.6" stroke-linecap="round"/>
<path d="M511.5 408C511.9 407.6 511.667 406.713 511.5 406.319C511.11 406.273 510.708 406.259 510.404 406.319C509.807 407.638 511 408.5 511.5 408Z" fill="#2D2D2D"/>
<path d="M512.5 406.5C512.245 406.436 511.878 406.363 511.5 406.319M509 407.5C509.5 407.5 509.5 407 510 406.5C510.09 406.411 510.231 406.353 510.404 406.319M511.5 406.319C511.667 406.713 511.9 407.6 511.5 408C511 408.5 509.807 407.638 510.404 406.319M511.5 406.319C511.11 406.273 510.708 406.259 510.404 406.319" stroke="#2D2D2D" stroke-width="0.6" stroke-linecap="round"/>
<path d="M520.5 405C520.107 405 519.775 405.143 519.5 405.359C519.5 406.072 520.2 407 521 407C521.5 407 521.662 405.85 521.146 405.028C520.931 405.01 520.716 405 520.5 405Z" fill="#2D2D2D"/>
<path d="M518.5 407C518.612 406.552 518.935 405.802 519.5 405.359M524.5 405.5C523.644 405.5 522.421 405.133 521.146 405.028M519.5 405.359C519.775 405.143 520.107 405 520.5 405C520.716 405 520.931 405.01 521.146 405.028M519.5 405.359C519.5 406.072 520.2 407 521 407C521.5 407 521.662 405.85 521.146 405.028" stroke="#2D2D2D" stroke-width="0.6" stroke-linecap="round"/>
<ellipse cx="493.475" cy="663.861" rx="2" ry="2.5" transform="rotate(11.9848 493.475 663.861)" fill="#6C4E4F"/>
</g>
<defs>
<filter id="filter0_b_740_8552" x="500" y="236.5" width="410" height="387" filterUnits="userSpaceOnUse" color-interpolation-filters="sRGB">
<feFlood flood-opacity="0" result="BackgroundImageFix"/>
<feGaussianBlur in="BackgroundImageFix" stdDeviation="1"/>
<feComposite in2="SourceAlpha" operator="in" result="effect1_backgroundBlur_740_8552"/>
<feBlend mode="normal" in="SourceGraphic" in2="effect1_backgroundBlur_740_8552" result="shape"/>
</filter>
<filter id="filter1_b_740_8552" x="295" y="243.5" width="197" height="350.5" filterUnits="userSpaceOnUse" color-interpolation-filters="sRGB">
<feFlood flood-opacity="0" result="BackgroundImageFix"/>
<feGaussianBlur in="BackgroundImageFix" stdDeviation="1"/>
<feComposite in2="SourceAlpha" operator="in" result="effect1_backgroundBlur_740_8552"/>
<feBlend mode="normal" in="SourceGraphic" in2="effect1_backgroundBlur_740_8552" result="shape"/>
</filter>
<linearGradient id="paint0_linear_740_8552" x1="614.5" y1="546" x2="610.5" y2="289.5" gradientUnits="userSpaceOnUse">
<stop offset="0.626911" stop-color="#042604"/>
<stop offset="0.826161" stop-color="#214308"/>
<stop offset="0.925711" stop-color="#437320"/>
</linearGradient>
<linearGradient id="paint1_linear_740_8552" x1="-25.5" y1="735" x2="183" y2="726.5" gradientUnits="userSpaceOnUse">
<stop stop-color="#020202"/>
<stop offset="1" stop-color="#100F0A" stop-opacity="0.17"/>
</linearGradient>
</defs>
</svg>
